<?xml version="1.0" encoding="utf-8"?>
<!-- Generator: Adobe Illustrator 19.1.1, SVG Export Plug-In . SVG Version: 6.00 Build 0)  -->
<svg version="1.1" id="Layer_1" xmlns="http://www.w3.org/2000/svg" xmlns:xlink="http://www.w3.org/1999/xlink" x="0px" y="0px"
	 viewBox="174 126 960 521" style="enable-background:new 174 126 960 521;" xml:space="preserve">
<style type="text/css">
	.st0{fill:#4682B4;}
	.st1{font-family:'ArialMT';}
	.st2{font-size:12px;}
	.st3{fill:none;stroke:#FFFFFF;}
	.st4{display:none;fill:none;stroke:#000000;}
	.st5{font-size:15px;}
	.st6{fill:none;}
</style>
<g transform="translate(25,25)">
	<g>
		<rect x="174" y="570" class="st0" width="57.2" height="11"/>
		<text transform="matrix(1 0 0 1 231.1552 580)" class="st1 st2">Restaurant Foods</text>
	</g>
	<g>
		<rect x="174" y="553" class="st0" width="63.9" height="11"/>
		<text transform="matrix(1 0 0 1 237.8793 563)" class="st1 st2">Meals, Entrees, and Sidedishes</text>
	</g>
	<g>
		<rect x="174" y="536" class="st0" width="68.4" height="11"/>
		<text transform="matrix(1 0 0 1 242.3621 546)" class="st1 st2">Spices and Herbs</text>
	</g>
	<g>
		<rect x="174" y="519" class="st0" width="143.4" height="11"/>
		<text transform="matrix(1 0 0 1 193.3701 529)" class="st1 st2">Nut and Seed Products</text>
	</g>
	<g>
		<rect x="174" y="502" class="st0" width="181.6" height="11"/>
		<text transform="matrix(1 0 0 1 316.2002 512)" class="st1 st2">Snacks</text>
	</g>
	<g>
		<rect x="174" y="485" class="st0" width="184.9" height="11"/>
		<text transform="matrix(1 0 0 1 288.8767 495)" class="st1 st2">Ethnic Foods</text>
	</g>
	<g>
		<rect x="174" y="468" class="st0" width="205.1" height="11"/>
		<text transform="matrix(1 0 0 1 247.6839 478)" class="st1 st2">Cereal Grains and Pasta</text>
	</g>
	<g>
		<rect x="174" y="451" class="st0" width="240.9" height="11"/>
		<text transform="matrix(1 0 0 1 344.2549 461)" class="st1 st2">Fats and Oils</text>
	</g>
	<g>
		<rect x="174" y="434" class="st0" width="262.2" height="11"/>
		<text transform="matrix(1 0 0 1 267.4504 444)" class="st1 st2">Sausages and Luncheon Meats</text>
	</g>
	<g>
		<rect x="174" y="417" class="st0" width="267.8" height="11"/>
		<text transform="matrix(1 0 0 1 315.1124 427)" class="st1 st2">Dairy and Egg Products</text>
	</g>
	<g>
		<rect x="174" y="400" class="st0" width="285.8" height="11"/>
		<text transform="matrix(1 0 0 1 301.6958 410)" class="st1 st2">Finfish and Shellfish Products</text>
	</g>
	<g>
		<rect x="174" y="383" class="st0" width="311.6" height="11"/>
		<text transform="matrix(1 0 0 1 428.1826 393)" class="st1 st2">Beverages</text>
	</g>
	<g>
		<rect x="174" y="366" class="st0" width="366.5" height="11"/>
		<text transform="matrix(1 0 0 1 476.4284 376)" class="st1 st2">Baby Foods</text>
	</g>
	<g>
		<rect x="174" y="349" class="st0" width="367.6" height="11"/>
		<text transform="matrix(1 0 0 1 466.2229 359)" class="st1 st2">Pork Products</text>
	</g>
	<g>
		<rect x="174" y="332" class="st0" width="367.6" height="11"/>
		<text transform="matrix(1 0 0 1 423.5491 342)" class="st1 st2">Fruits and Fruit Juices</text>
	</g>
	<g>
		<rect x="174" y="315" class="st0" width="382.2" height="11"/>
		<text transform="matrix(1 0 0 1 516.8036 325)" class="st1 st2">Sweets</text>
	</g>
	<g>
		<rect x="174" y="298" class="st0" width="386.6" height="11"/>
		<text transform="matrix(1 0 0 1 387.2063 308)" class="st1 st2">Lamb, Veal, and Game Products</text>
	</g>
	<g>
		<rect x="174" y="281" class="st0" width="409.1" height="11"/>
		<text transform="matrix(1 0 0 1 412.9424 291)" class="st1 st2">Legumes and Legume Products</text>
	</g>
	<g>
		<rect x="174" y="264" class="st0" width="409.1" height="11"/>
		<text transform="matrix(1 0 0 1 523.0283 274)" class="st1 st2">Fast Foods</text>
	</g>
	<g>
		<rect x="174" y="247" class="st0" width="427" height="11"/>
		<text transform="matrix(1 0 0 1 512.9457 257)" class="st1 st2">Poultry Products</text>
	</g>
	<g>
		<rect x="174" y="230" class="st0" width="451.6" height="11"/>
		<text transform="matrix(1 0 0 1 530.2649 240)" class="st1 st2">Breakfast Cereals</text>
	</g>
	<g>
		<rect x="174" y="213" class="st0" width="555.9" height="11"/>
		<text transform="matrix(1 0 0 1 645.1472 223)" class="st1 st2">Baked Products</text>
	</g>
	<g>
		<rect x="174" y="196" class="st0" width="559.2" height="11"/>
		<text transform="matrix(1 0 0 1 581.1382 206)" class="st1 st2">Soups, Sauces, and Gravies</text>
	</g>
	<g>
		<rect x="174" y="179" class="st0" width="693.7" height="11"/>
		<text transform="matrix(1 0 0 1 792.3319 189)" class="st1 st2">Beef Products</text>
	</g>
	<g>
		<rect x="174" y="162" class="st0" width="910" height="11"/>
		<text transform="matrix(1 0 0 1 893.8516 172)" class="st1 st2">Vegetables and Vegetable Products</text>
	</g>
	<g transform="translate(0,0)">
		<g transform="translate(0,0)">
			<line class="st3" x1="174" y1="147" x2="174" y2="597"/>
			<text transform="matrix(1 0 0 1 170.6631 144)" class="st1 st2">0</text>
		</g>
		<g transform="translate(112.06896551724138,0)">
			<line class="st3" x1="174" y1="147" x2="174" y2="597"/>
			<text transform="matrix(1 0 0 1 163.9893 144)" class="st1 st2">100</text>
		</g>
		<g transform="translate(224.13793103448276,0)">
			<line class="st3" x1="174" y1="147" x2="174" y2="597"/>
			<text transform="matrix(1 0 0 1 163.9893 144)" class="st1 st2">200</text>
		</g>
		<g transform="translate(336.2068965517241,0)">
			<line class="st3" x1="174" y1="147" x2="174" y2="597"/>
			<text transform="matrix(1 0 0 1 163.9893 144)" class="st1 st2">300</text>
		</g>
		<g transform="translate(448.2758620689655,0)">
			<line class="st3" x1="174" y1="147" x2="174" y2="597"/>
			<text transform="matrix(1 0 0 1 163.9893 144)" class="st1 st2">400</text>
		</g>
		<g transform="translate(560.344827586207,0)">
			<line class="st3" x1="174" y1="147" x2="174" y2="597"/>
			<text transform="matrix(1 0 0 1 163.9893 144)" class="st1 st2">500</text>
		</g>
		<g transform="translate(672.4137931034483,0)">
			<line class="st3" x1="174" y1="147" x2="174" y2="597"/>
			<text transform="matrix(1 0 0 1 163.9893 144)" class="st1 st2">600</text>
		</g>
		<g transform="translate(784.4827586206897,0)">
			<line class="st3" x1="174" y1="147" x2="174" y2="597"/>
			<text transform="matrix(1 0 0 1 163.9893 144)" class="st1 st2">700</text>
		</g>
		<g transform="translate(896.551724137931,0)">
			<line class="st3" x1="174" y1="147" x2="174" y2="597"/>
			<text transform="matrix(1 0 0 1 163.9893 144)" class="st1 st2">800</text>
		</g>
		<path class="st4" d="M174,597V147h910v450"/>
	</g>
	<text transform="matrix(1 0 0 1 532.7122 120)" class="st1 st5" style="text-decoration: underline;">Number of Items in Inventory</text>
	<rect x="149" y="101" class="st6" width="960" height="521"/>
</g>
<defs  xmlns="http://www.w3.org/1999/xhtml">
	<style  type="text/css">
		<![CDATA[
body { font-style: normal; font-variant: normal; font-weight: normal; font-stretch: normal; font-size: 11px; line-height: normal; font-family: sans-serif; }
.axis line, .axis path { fill: none; stroke: rgb(0, 0, 0); shape-rendering: crispEdges; }
.x.axis path { display: none; }
.x.axis line { stroke: white; }
			]]>
	</style>
</defs>
</svg>
