<?xml version="1.0" standalone="no"?><!DOCTYPE svg PUBLIC "-//W3C//DTD SVG 1.1//EN" "http://www.w3.org/Graphics/SVG/1.1/DTD/svg11.dtd"><svg width="500" height="500" version="1.1" xmlns="http://www.w3.org/2000/svg" xmlns:xlink="http://www.w3.org/1999/xlink"><defs xmlns="http://www.w3.org/1999/xhtml"><style type="text/css"><![CDATA[
body { font-style: normal; font-variant: normal; font-weight: normal; font-stretch: normal; font-size: 11px; line-height: normal; font-family: sans-serif; }
.axis line, .axis path { fill: none; stroke: rgb(0, 0, 0); shape-rendering: crispEdges; }
.x.axis path { display: none; }
.line { fill: none; stroke: steelblue; stroke-width: 1.5px; }]]></style></defs><g transform="translate(25,25)"><text x="225" y="-12.5" text-anchor="middle" style="font-size: 15px; text-decoration: underline;">Flowers Pedal Width by Species</text><g class="x axis" transform="translate(0,450)"><g class="tick" transform="translate(34,0)" style="opacity: 1;"><line y2="6" x2="0"/><text dy=".71em" y="9" x="0" style="text-anchor: middle;">setosa</text></g><g class="tick" transform="translate(225,0)" style="opacity: 1;"><line y2="6" x2="0"/><text dy=".71em" y="9" x="0" style="text-anchor: middle;">versicolor</text></g><g class="tick" transform="translate(416,0)" style="opacity: 1;"><line y2="6" x2="0"/><text dy=".71em" y="9" x="0" style="text-anchor: middle;">virginica</text></g><path class="domain" d="M0,6V0H450V6"/><text y="17" x="-25" style="text-anchor: start;">Species</text></g><g class="y axis"><g class="tick" transform="translate(0,450)" style="opacity: 1;"><line x2="-6" y2="0"/><text dy=".32em" x="-9" y="0" style="text-anchor: end;">0.0</text></g><g class="tick" transform="translate(0,414)" style="opacity: 1;"><line x2="-6" y2="0"/><text dy=".32em" x="-9" y="0" style="text-anchor: end;">0.2</text></g><g class="tick" transform="translate(0,378)" style="opacity: 1;"><line x2="-6" y2="0"/><text dy=".32em" x="-9" y="0" style="text-anchor: end;">0.4</text></g><g class="tick" transform="translate(0,342)" style="opacity: 1;"><line x2="-6" y2="0"/><text dy=".32em" x="-9" y="0" style="text-anchor: end;">0.6</text></g><g class="tick" transform="translate(0,306)" style="opacity: 1;"><line x2="-6" y2="0"/><text dy=".32em" x="-9" y="0" style="text-anchor: end;">0.8</text></g><g class="tick" transform="translate(0,270)" style="opacity: 1;"><line x2="-6" y2="0"/><text dy=".32em" x="-9" y="0" style="text-anchor: end;">1.0</text></g><g class="tick" transform="translate(0,234)" style="opacity: 1;"><line x2="-6" y2="0"/><text dy=".32em" x="-9" y="0" style="text-anchor: end;">1.2</text></g><g class="tick" transform="translate(0,198.00000000000003)" style="opacity: 1;"><line x2="-6" y2="0"/><text dy=".32em" x="-9" y="0" style="text-anchor: end;">1.4</text></g><g class="tick" transform="translate(0,162)" style="opacity: 1;"><line x2="-6" y2="0"/><text dy=".32em" x="-9" y="0" style="text-anchor: end;">1.6</text></g><g class="tick" transform="translate(0,126.00000000000001)" style="opacity: 1;"><line x2="-6" y2="0"/><text dy=".32em" x="-9" y="0" style="text-anchor: end;">1.8</text></g><g class="tick" transform="translate(0,89.99999999999999)" style="opacity: 1;"><line x2="-6" y2="0"/><text dy=".32em" x="-9" y="0" style="text-anchor: end;">2.0</text></g><g class="tick" transform="translate(0,53.99999999999995)" style="opacity: 1;"><line x2="-6" y2="0"/><text dy=".32em" x="-9" y="0" style="text-anchor: end;">2.2</text></g><g class="tick" transform="translate(0,18.000000000000014)" style="opacity: 1;"><line x2="-6" y2="0"/><text dy=".32em" x="-9" y="0" style="text-anchor: end;">2.4</text></g><path class="domain" d="M-6,0H0V450H-6"/><text y="15" transform="rotate(-90)" style="text-anchor: end;">Flower Petal Width</text></g><g class="flower"><circle cx="34" cy="387" r="3"/><line x1="34" x2="34" y1="342" y2="364.5" style="stroke: black;"/><line x1="34" x2="34" y1="432" y2="409.5" style="stroke: black;"/></g><g class="flower"><circle cx="225" cy="198.00000000000003" r="3"/><line x1="225" x2="225" y1="126.00000000000001" y2="162" style="stroke: black;"/><line x1="225" x2="225" y1="270" y2="234" style="stroke: black;"/></g><g class="flower"><circle cx="416" cy="98.99999999999999" r="3"/><line x1="416" x2="416" y1="0" y2="44.99999999999999" style="stroke: black;"/><line x1="416" x2="416" y1="198.00000000000003" y2="148.49999999999997" style="stroke: black;"/></g></g></svg>